<?xml version="1.0" encoding="utf-8"?>
<svg viewBox="87.648 60.349 320 384" width="320" height="384" xmlns="http://www.w3.org/2000/svg">
  <path d="M 135.648 60.349 C 109.148 60.349 87.648 81.849 87.648 108.349 L 87.648 396.349 C 87.648 422.849 109.148 444.349 135.648 444.349 L 167.648 444.349 C 194.148 444.349 215.648 422.849 215.648 396.349 L 215.648 108.349 C 215.648 81.849 194.148 60.349 167.648 60.349 L 135.648 60.349 Z M 327.648 60.349 C 301.148 60.349 279.648 81.849 279.648 108.349 L 279.648 396.349 C 279.648 422.849 301.148 444.349 327.648 444.349 L 359.648 444.349 C 386.148 444.349 407.648 422.849 407.648 396.349 L 407.648 108.349 C 407.648 81.849 386.148 60.349 359.648 60.349 L 327.648 60.349 Z" style="fill: rgb(255, 255, 255);"/>
</svg>